# AST/ASF file generated using VICON BodyLanguage
# -----------------------------------------------
:version 1.10
:name VICON
:units
  mass 1.0
  length 0.45
  angle deg
:documentation
   .ast/.asf automatically generated from VICON data using
   VICON BodyBuilder and BodyLanguage model FoxedUp or BRILLIANT.MOD
:root
   order TX TY TZ RX RY RZ
   axis XYZ
   position 0 0 0  
   orientation 0 0 0 
:bonedata
  begin
     id 1 
     name lhipjoint
     direction 0.567149 -0.783011 0.255413 
     length 2.28399 
     axis 0 0 0  XYZ
  end
  begin
     id 2 
     name lfemur
     direction 0.34202 -0.939693 0  
     length 7.34031  
     axis 0 0 20  XYZ
    dof rx ry rz
    limits (-160.0 20.0)
           (-70.0 70.0)
           (-60.0 70.0)
  end
  begin
     id 3 
     name ltibia
     direction 0.34202 -0.939693 0   
     length 6.9833   
     axis 0 0 20   XYZ
    dof rx
    limits (-10.0 170.0)
  end
  begin
     id 4 
     name lfoot
     direction 0.136498 -0.375025 0.91691   
     length 2.33665   
     axis -90 7.62852e-016 20   XYZ
    dof rx rz
    limits (-45.0 90.0)
           (-70.0 20.0)
  end
  begin
     id 5 
     name ltoes
     direction 1.5367e-011 -4.21617e-011 1   
     length 1.15039   
     axis -90 7.62852e-016 20   XYZ
    dof rx
    limits (-90.0 20.0)
  end
  begin
     id 6 
     name rhipjoint
     direction -0.602854 -0.758518 0.247423   
     length 2.35775  
     axis 0 0 0  XYZ 
  end
  begin
     id 7 
     name rfemur
     direction -0.34202 -0.939693 0   
     length 7.43932   
     axis 0 0 -20   XYZ
    dof rx ry rz
    limits (-160.0 20.0)
           (-70.0 70.0)
           (-70.0 60.0)
  end
  begin
     id 8 
     name rtibia
     direction -0.34202 -0.939693 0   
     length 7.11893   
     axis 0 0 -20   XYZ
    dof rx
    limits (-10.0 170.0)
 end
 begin
     id 9 
     name rfoot
     direction -0.131771 -0.362037 0.922803   
     length 2.53019  
     axis -90 -7.62852e-016 -20   XYZ
    dof rx rz
    limits (-45.0 90.0)
           (-20.0 70.0)
  end
  begin
     id 10 
     name rtoes
     direction -1.53733e-011 -4.21932e-011 1   
     length 1.24596   
     axis -90 -7.62852e-016 -20   XYZ
    dof rx
    limits (-90.0 20.0)
  end
  begin
     id 11 
     name lowerback
     direction 0.0235427 0.999023 -0.0374125   
     length 2.21768   
     axis 0 0 0   XYZ
    dof rx ry rz
    limits (-20.0 45.0)
           (-30.0 30.0)
           (-30.0 30.0)
  end
  begin
     id 12 
     name upperback
     direction 0.0302156 0.996818 -0.073759   
     length 2.20352   
     axis 0 0 0   XYZ
    dof rx ry rz
    limits (-20.0 45.0)
           (-30.0 30.0)
           (-30.0 30.0)
  end
  begin
     id 13 
     name thorax
     direction 0.0187169 0.998235 -0.0563532   
     length 2.22103   
     axis 0 0 0   XYZ
    dof rx ry rz
    limits (-20.0 45.0)
           (-30.0 30.0)
           (-30.0 30.0)
  end
  begin
     id 14 
     name lowerneck
     direction -0.119528 0.987423 0.103481   
     length 1.72948   
     axis 0 0 0   XYZ
    dof rx ry rz
    limits (-20.0 45.0)
           (-30.0 30.0)
           (-30.0 30.0)
  end
  begin
     id 15 
     name upperneck
     direction 0.248049 0.963095 -0.104496   
     length 1.74979   
     axis 0 0 0   XYZ
    dof rx ry rz
    limits (-20.0 45.0)
           (-30.0 30.0)
           (-30.0 30.0)
  end
  begin
     id 16
     name head
     direction 0.0903589 0.994284 -0.056876  
     length 1.78268  
     axis 0 0 0   XYZ
    dof rx ry rz
    limits (-20.0 45.0)
           (-30.0 30.0)
           (-30.0 30.0)
  end
  begin
     id 17 
     name lclavicle
     direction 0.946008 0.242039 -0.215608  
     length 3.80783  
     axis 0 0 0   XYZ
    dof ry rz
    limits (-20.0 10.0)
           (0.0 20.0)
  end
  begin
     id 18 
     name lhumerus
     direction 1 -4.48991e-011 -2.25695e-027   
     length 4.83125   
     axis 180 -30 -90   XYZ
    dof rx ry rz
    limits (-60.0 90.0)
           (-90.0 90.0)
           (-90.0 90.0)
  end
  begin
     id 19
     name lradius
     direction 0.999991 0.00366712 -0.00211721   
     length 3.00391   
     axis 180 -30 -90   XYZ
    dof rx
    limits (-10.0 170.0)
  end
  begin
     id 20
     name lwrist
     direction 0.999991 0.00393016 -0.00141978   
     length 1.50195   
     axis -1.00488e-014 90 90   XYZ
    dof ry
    limits (-180.0 0.0)
 end
  begin
     id 21 
     name lhand
     direction 1 -4.49123e-011 2.72098e-026   
     length 1.2717   
     axis -1.73687e-014 90 90   XYZ
    dof rx rz
    limits (-90.0 90.0)
           (-45.0 45.0)
  end
  begin
     id 22 
     name lfingers
     direction 1 -4.48678e-011 5.4479e-026   
     length 1.02528   
     axis -3.47372e-014 90 90   XYZ
    dof rx
    limits (0.0 90.0)
  end
  begin
     id 23
     name lthumb
     direction 0.707107 -6.34851e-011 0.707107   
     length 1.4721   
     axis -90 45 -1.62303e-014   XYZ
    dof rx rz
    limits (-45.0 45.0)
           (-45.0 45.0)
  end
  begin
     id 24 
     name rclavicle
     direction -0.981723 0.189447 -0.0181673   
     length 3.74989  
     axis 0 0 0   XYZ 
    dof ry rz
    limits (-10.0 20.0)
           (-20.0 0.0)
  end
  begin
     id 25 
     name rhumerus
     direction -1 -4.48985e-011 2.38206e-027  
     length 4.61118   
     axis 180 30 90   XYZ
    dof rx ry rz
    limits (-90.0 60.0)
           (-90.0 90.0)
           (-90.0 90.0)
  end
  begin
     id 26 
     name rradius
     direction -1 -4.48977e-011 7.41019e-027   
     length 2.91491   
     axis 180 30 90   XYZ
    dof rx
    limits (-10.0 170.0)
  end
  begin
     id 27 
     name rwrist
     direction -1 -4.48549e-011 1.3624e-026   
     length 1.45745   
     axis -1.00488e-014 -90 -90   XYZ
    dof ry
    limits (-180.0 0.0)
  end
  begin
     id 28
     name rhand
     direction -1 -4.49107e-011 2.72109e-026   
     length 1.30769   
     axis -1.73687e-014 -90 -90   XYZ
    dof rx rz
    limits (-90.0 90.0)
           (-45.0 45.0)
  end
  begin
     id 29
     name rfingers
     direction -1 -4.48919e-011 5.44468e-026   
     length 1.05429   
     axis -3.47372e-014 -90 -90   XYZ
    dof rx
    limits (0.0 90.0)
  end
  begin
     id 30
     name rthumb
     direction -0.707107 -6.35315e-011 0.707107   
     length 1.51376   
     axis -90 -45 1.62303e-014   XYZ
    dof rx rz
    limits (-45.0 45.0)
           (-45.0 45.0)
  end
:hierarchy
  begin
    root lhipjoint rhipjoint lowerback
    lhipjoint lfemur
    lfemur ltibia
    ltibia lfoot
    lfoot ltoes
    rhipjoint rfemur
    rfemur rtibia
    rtibia rfoot
    rfoot rtoes
    lowerback upperback
    upperback thorax
    thorax lowerneck lclavicle rclavicle
    lowerneck upperneck
    upperneck head
    lclavicle lhumerus
    lhumerus lradius
    lradius lwrist
    lwrist lhand lthumb
    lhand lfingers
    rclavicle rhumerus
    rhumerus rradius
    rradius rwrist
    rwrist rhand rthumb
    rhand rfingers
  end

#!OML:ASF X:\für Bonn\!DataBase\2005_08_11_Bastian_Final\c3d\Bastian.ASF
:FULLY-SPECIFIED
:DEGREES
1
root 1.13912 18.0517 2.72524 178.7 -6.69295 -175.151
lowerback 15.6115 -2.43033 5.01096
upperback 8.26534 -3.91901 2.15108
thorax -0.071366 -2.44113 0.0382137
lowerneck -19.6148 -8.80213 -1.90656
upperneck -9.81946 -9.06121 14.1115
head 0.945796 -3.22954 4.03627
rclavicle 5.72748e-014 -2.63887e-014
rhumerus -35.6402 49.6667 -89.8568
rradius 33.0921
rwrist -87.2656
rhand -53.5604 -15.439
rfingers 7.12502
rthumb -26.0024 -43.6799
lclavicle 5.72748e-014 -2.63887e-014
lhumerus -405.591 -51.432 457.995
lradius 24.182
lwrist 56.885
lhand -40.2662 22.1231
lfingers 7.12502
lthumb -13.2244 51.6836
rfemur -0.95866 2.59734 26.3461
rtibia 28.9095
rfoot -11.1505 -16.8511
rtoes -5.65318
lfemur 3.17399 -2.51879 -12.6153
ltibia 19.3477
lfoot -5.79426 -2.73959
ltoes -13.4279
2
root 1.13379 18.0401 2.77627 178.698 -6.70376 -175.149
lowerback 16.1877 -2.31149 5.17757
upperback 8.40817 -3.7626 2.13406
thorax -0.220248 -2.38243 -0.0685524
lowerneck -20.606 -8.98732 -1.5575
upperneck -10.0574 -9.21248 14.1148
head 1.00488 -3.21791 3.9566
rclavicle 1.39646e-014 -3.07122e-014
rhumerus -33.2427 53.7078 -91.4901
rradius 34.2888
rwrist -88.3424
rhand -54.0096 -15.3733
rfingers 7.12502
rthumb -26.4325 -43.5503
lclavicle 1.39646e-014 -3.07122e-014
lhumerus -402.379 -53.3637 459.707
lradius 24.4437
lwrist 56.2285
lhand -40.8726 22.6809
lfingers 7.12502
lthumb -13.8088 52.2026
rfemur -1.03529 2.63713 26.3328
rtibia 28.7872
rfoot -11.2621 -16.9521
rtoes -5.67314
lfemur 2.91438 -2.3311 -12.5812
ltibia 19.5094
lfoot -5.88153 -3.10696
ltoes -13.9557
3
root 1.12861 18.0293 2.82472 178.712 -6.72201 -175.195
lowerback 16.5798 -2.19654 5.28776
upperback 8.56197 -3.62581 2.10549
thorax -0.258726 -2.33018 -0.166179
lowerneck -21.2717 -9.15531 -1.30748
upperneck -10.4287 -9.31288 14.1974
head 0.983418 -3.19843 3.92949
rclavicle 1.09083e-014 -6.16232e-015
rhumerus -29.4788 56.8664 -91.4067
rradius 35.0884
rwrist -88.3511
rhand -53.9966 -15.1405
rfingers 7.12502
rthumb -26.4201 -43.3194
lclavicle 1.09083e-014 -6.16232e-015
lhumerus -397.839 -54.4335 459.886
lradius 24.4647
lwrist 54.5171
lhand -41.3271 22.9994
lfingers 7.12502
lthumb -14.2468 52.4907
rfemur -1.11866 2.76984 26.2894
rtibia 28.6756
rfoot -11.3973 -17.1455
rtoes -5.73365
lfemur 2.66147 -2.18985 -12.6058
ltibia 19.6409
lfoot -5.98198 -3.45267
ltoes -14.6294
4
root 1.12345 18.0177 2.87086 178.718 -6.72591 -175.265
lowerback 16.8746 -2.08453 5.37409
upperback 8.69696 -3.4924 2.05375
thorax -0.266439 -2.27524 -0.280225
lowerneck -21.6878 -9.29808 -1.08762
upperneck -10.826 -9.38654 14.3045
head 0.920256 -3.18395 3.92184
rclavicle 3.47625e-014 -1.64991e-014
rhumerus -24.3908 59.1138 -89.725
rradius 35.624
rwrist -87.6995
rhand -53.6168 -14.7994
rfingers 7.12502
rthumb -26.0564 -43.0323
lclavicle 3.47625e-014 -1.64991e-014
lhumerus -392.798 -55.257 459.359
lradius 24.6062
lwrist 52.7067
lhand -41.7317 23.1418
lfingers 7.12502
lthumb -14.6366 52.6053
rfemur -1.17963 2.93228 26.226
rtibia 28.5808
rfoot -11.57 -17.3602
rtoes -5.57691
lfemur 2.45373 -1.98756 -12.647
ltibia 19.7388
lfoot -6.0724 -3.84144
ltoes -15.1646
5
root 1.11811 18.0071 2.91774 178.723 -6.73664 -175.332
lowerback 17.1411 -1.98521 5.46298
upperback 8.8024 -3.36771 1.99907
thorax -0.290977 -2.22178 -0.398494
lowerneck -21.9499 -9.42955 -0.875735
upperneck -11.2202 -9.45948 14.3892
head 0.835134 -3.18384 3.91135
rclavicle 2.76062e-014 7.45443e-015
rhumerus -18.1002 60.4898 -86.6503
rradius 35.9982
rwrist -86.6362
rhand -52.9893 -14.5255
rfingers 7.12502
rthumb -25.4555 -42.8455
lclavicle 2.76062e-014 7.45443e-015
lhumerus -388.036 -57.0585 458.921
lradius 25.144
lwrist 52.2567
lhand -42.2956 23.0253
lfingers 7.12502
lthumb -15.1799 52.4485
rfemur -1.27358 3.08461 26.1659
rtibia 28.5231
rfoot -11.7131 -17.5745
rtoes -5.47263
lfemur 2.26675 -1.78962 -12.6871
ltibia 19.7782
lfoot -6.12756 -4.19387
ltoes -15.5333
6
root 1.11269 17.9992 2.96601 178.74 -6.75775 -175.425
lowerback 17.4092 -1.89468 5.48546
upperback 8.87903 -3.25607 1.95305
thorax -0.344538 -2.17529 -0.467829
lowerneck -22.1943 -9.52773 -0.636764
upperneck -11.5259 -9.52211 14.4135
head 0.767328 -3.18635 3.87789
rclavicle -1.92821e-014 3.69739e-014
rhumerus -10.9485 61.0177 -82.5361
rradius 36.4381
rwrist -85.4764
rhand -52.3772 -14.2413
rfingers 7.12502
rthumb -24.869 -42.6437
lclavicle -1.92821e-014 3.69739e-014
lhumerus -383.095 -59.6067 457.963
lradius 26.0768
lwrist 52.7953
lhand -42.8039 22.7273
lfingers 7.12502
lthumb -15.6695 52.1128
rfemur -1.39942 3.20567 26.0696
rtibia 28.5024
rfoot -11.8639 -17.7776
rtoes -5.40028
lfemur 2.08313 -1.64324 -12.7679
ltibia 19.7714
lfoot -6.1255 -4.47427
ltoes -15.4321
7
root 1.10695 17.9926 3.01352 178.771 -6.77168 -175.536
lowerback 17.6707 -1.8187 5.45141
upperback 8.9107 -3.15909 1.90297
thorax -0.442222 -2.13449 -0.506455
lowerneck -22.3776 -9.5799 -0.394927
upperneck -11.7239 -9.55975 14.4252
head 0.721027 -3.18579 3.8414
rclavicle -1.09332e-014 1.98785e-014
rhumerus -3.52387 60.6348 -78.101
rradius 36.8361
rwrist -84.1362
rhand -51.7723 -13.9588
rfingers 7.12502
rthumb -24.2892 -42.44
lclavicle -1.09332e-014 1.98785e-014
lhumerus -377.377 -61.8629 455.84
lradius 27.1654
lwrist 53.1934
lhand -43.0204 22.1839
lfingers 7.12502
lthumb -15.878 51.5529
rfemur -1.55703 3.32199 25.9431
rtibia 28.5165
rfoot -12.0997 -17.951
rtoes -4.95407
lfemur 1.90119 -1.44979 -12.8631
ltibia 19.7272
lfoot -6.0749 -4.74135
ltoes -14.9311
8
root 1.10177 17.9891 3.05774 178.771 -6.78462 -175.651
lowerback 17.9046 -1.74602 5.34004
upperback 8.93132 -3.07771 1.88831
thorax -0.533973 -2.1039 -0.463313
lowerneck -22.2397 -5.89998 -1.70298
upperneck -12.7611 -10.361 13.8551
head 0.453019 -6.32689 3.80802
rclavicle 1.2424e-014 -1.56046e-014
rhumerus 3.57085 59.0485 -74.1541
rradius 36.9524
rwrist -82.252
rhand -51.0914 -13.7267
rfingers 7.12502
rthumb -23.6363 -42.2938
lclavicle 1.2424e-014 -1.56046e-014
lhumerus -370.729 -63.8361 452.545
lradius 28.3493
lwrist 53.4232
lhand -43.044 21.5722
lfingers 7.12502
lthumb -15.9007 50.9394
rfemur -1.68564 3.40651 25.8145
rtibia 28.5497
rfoot -12.3693 -18.1303
rtoes -4.70913
lfemur 1.76798 -1.2317 -12.9617
ltibia 19.674
lfoot -6.00063 -5.00228
ltoes -14.346
